# xmcd
#
# Track frame offsets:
#	150
#	11954
#	26555
#	38865
#	50386
#	62005
#	74315
#	88822
#	99663
#	112343
#	123293
#	136418
#	148721
#	164799
#	183807
#	197031
#	211024
#	221565
#	239080
#	252420
#	268989
#	284051
#	297981
#
# Disc length: 4133 seconds
#
# Revision: 0
# Processed by: cddbd v1.5.1PL2 Copyright (c) Steve Scherf et al.
# Submitted via: EasyCDDAExtractor 9.0.0.1
#
DISCID=7b102317
DTITLE=Various Artist - the very best of Country Show Down
DYEAR=1900
DGENRE=
TTITLE0=Johnny Cash - The Ring of Fire
TTITLE1=John Denver - Take me home, country roads 
TTITLE2=Dolly Parton - Nine To Five
TTITLE3=Willie Nelson - On The Road Again
TTITLE4=Dave Dudley - Six Days On The Road
TTITLE5=Charlie Rich - The Most Beautiful Girl
TTITLE6=Glen Campbell - Rhinestone Cowboy
TTITLE7=Waylon Jennings - Dream Baby
TTITLE8=Lee Hazlewood - These Boots Are Made For Walking
TTITLE9=Roger Miller - King Of The Road
TTITLE10=Lynn Anderson - Rose Garden
TTITLE11=Sawyer Brown - When Love Comes Calling
TTITLE12=Linda Ronstadt - Desperado
TTITLE13=Kris Kristofferson - Me And Bobby Mcgee
TTITLE14=Kenny Rogers - Ruby,Don't Take Your Love To Town
TTITLE15=Highwaymen - Highwayman
TTITLE16=Chet Atkins - Mr. Sandman
TTITLE17=Dr. Hook - Sylvia's Mother
TTITLE18=Merle Haggard - Okie From Muskogee
TTITLE19=Debbie Boone - You Light Up My Life
TTITLE20=The Bellamy Brothers - Let Your Love Flow
TTITLE21=Waylon Jennings - Good Hearted Woman
TTITLE22=Wanda Jackson - Stand By Your Man
EXTD=
EXTT0=
EXTT1=
EXTT2=
EXTT3=
EXTT4=
EXTT5=
EXTT6=
EXTT7=
EXTT8=
EXTT9=
EXTT10=
EXTT11=
EXTT12=
EXTT13=
EXTT14=
EXTT15=
EXTT16=
EXTT17=
EXTT18=
EXTT19=
EXTT20=
EXTT21=
EXTT22=
PLAYORDER=
